<mxfile host="app.diagrams.net" agent="Mozilla/5.0 (Windows NT 10.0; Win64; x64) AppleWebKit/537.36 (KHTML, like Gecko) Chrome/129.0.0.0 Safari/537.36" version="24.7.14">
  <diagram name="Page-1" id="XQ6BxqHM6ZqJU_AateP5">
    <mxGraphModel dx="808" dy="438" grid="1" gridSize="10" guides="1" tooltips="1" connect="1" arrows="1" fold="1" page="1" pageScale="1" pageWidth="850" pageHeight="1100" math="0" shadow="0">
      <root>
        <mxCell id="0" />
        <mxCell id="1" parent="0" />
        <mxCell id="yTpIyO5GVoY9CFDIABng-3" value="" style="shape=image;verticalLabelPosition=bottom;labelBackgroundColor=default;verticalAlign=top;aspect=fixed;imageAspect=0;image=data:image/svg+xml,PHN2ZyB4bWxuczp4bGluaz0iaHR0cDovL3d3dy53My5vcmcvMTk5OS94bGluayIgeG1sbnM9Imh0dHA6Ly93d3cudzMub3JnLzIwMDAvc3ZnIiB4bWw6c3BhY2U9InByZXNlcnZlIiB2aWV3Qm94PSIwIDAgMTIwMCAxMjAwIiBoZWlnaHQ9IjEyMDBweCIgd2lkdGg9IjEyMDBweCIgeT0iMHB4IiB4PSIwcHgiIGlkPSJMYXllcl8xIiB2ZXJzaW9uPSIxLjEiPiYjeGE7PHBhdGggZD0iTTIxNy4zMjMsMTEwNy4zNThjMTAuODIsNC43MjUsMTAuODIsMy4zNzMsMzEuNzgyLDAuNjYyYzIwLjk0NC0yLjY5MSwxMC4xMy0xOC45MjcsMTEuNDgzLTQ1LjkzOCYjMTA7JiM5O2MxLjM1OS0yNy4wNjctMS4zNTMtMzUuODQ4LDAuNjc2LTQzLjk1NGMyLjAzOS04LjEwMiw1LjQxNS0xNy41ODUsMTMuNTI4LTI3LjA0OWM4LjExMi05LjQ0NywxNC4xOTQtMTYuODk4LDE2LjIxMi0zOS44NjMmIzEwOyYjOTtjMi4wMjgtMjIuOTk3LDYuNzYtMy40MDEsMjUuMDE3LTI3LjcxNmMxOC4yNDctMjQuMzM4LDM3Ljg1My03NC4zNjYsNDkuMzM1LTg3Ljg4NGMxMS40OTctMTMuNTI1LDE5LjYwMy0xOS42MDIsMjMuNjY5LTMxLjEwOSYjMTA7JiM5O2M0LjA1LTExLjQ2NiwxMC4xMzEtMTQuMTgsMjAuMjc5LTI3LjcwMWMxMC4xMzQtMTMuNTI1LDM3LjE3LTc4LjQxNiwzNy4xNy03OC40MTZjMTA2LjEyNCw1MS4zNzgsMTQ2LjY4Ny0zMS4wNzgsMTQ2LjY4Ny0zMS4wNzgmIzEwOyYjOTtjNi43NSwxMS40ODMsNDcuMzE4LDU1LjQyLDYyLjg2NCw3NC4zNDJjMTUuNTQyLDE4Ljk0NCwxOC4yNDcsMjUuNjgzLDI1LDQxLjkxNmM2Ljc2NywxNi4yMTIsMy4zOCwxNi4yMTIsMjYuMzY2LDI1LjY5JiMxMDsmIzk7YzIyLjk5LDkuNDQ0LDIuNzA4LDQuNzI5LTIuMDI0LDE0Ljg2Yy00LjczMiwxMC4xNTgtMy4zOCw4Ljc4MiwyLjAyNCwzNS4xNDVjNS40MDYsMjYuMzc2LDIwLjI3OSw2NS41ODgsMjAuOTUxLDgzLjgyNCYjMTA7JiM5O2MwLjY4LDE4LjI2MS0yLjcwMSwxOC4yNjEsMy4zOTgsMzUuMTQyYzYuMDY3LDE2LjkwOCwxMC43OTYsNi43ODEsOC4wOTYsMjAuOTQ4Yy0yLjcwMSwxNC4yMjUsMi4wMzUsMjMuMDA3LDIuMDM1LDIzLjAwNyYjMTA7JiM5O2MtNS40MTksMTIuODMxLDguNzc4LDM3Ljg3LDEyLjE2OSw1OS40ODJjMy4zNjMsMjEuNjM0LTQuMDcxLDM1LjgxOCw0LjA0OSw0MC41NmM4LjEwNiw0LjcxMiw1LjQwNS01LjQxNiw1LjQwNS01LjQxNiYjMTA7JiM5O2MtMi4wMjgtMTAuMTMtMi4wMjgtMzcuODQ5LTIuMDI4LTM3Ljg0OWM0LjA1OSwxLjM1Miw3LjQzNiw5LjQ1OCw4LjEwNiwzMS43NjhjMC42ODYsMjIuMjk5LDIuMDM5LDQwLjU1MywyMi4zMTMsMzkuMTk4JiMxMDsmIzk7YzIwLjI3MS0xLjM2MywyNS4wMDcsNC43NDMsMzQuNDY1LTE0Ljg2YzkuNDYyLTE5LjYxMywyLjcwOC0xNC4xNzktOS40NTgtMzcuMTgzYy0xMi4xNjktMjIuOTcyLTEzLjUwNy01Ni4wOTItMTMuNTA3LTU2LjA5MiYjMTA7JiM5O3MwLjY2NS05LjQ4Mi00LjczNi0yMy42NjZjLTUuNDE1LTE0LjIwOC0wLjY2Ni03LjQ1NCw1LjQwMS0xNy41ODVjNi4wODgtMTAuMTMtMi43MDQtNC43MjUtOC43ODItMTcuNTc0JiMxMDsmIzk7Yy02LjA5MS0xMi44NDItMC42ODctNi4wNzcsMi4wMjEtMzEuMTAyYzIuNjk3LTI0Ljk5LTMuMzc3LTQzLjkyNC0xMi44MzUtMTAyLjczNGMtOS40NzgtNTguODA3LTIuNzA0LTM4LjU0Ni0yNC4zNDUtOTAuNTg5JiMxMDsmIzk7Yy0yMS42MjctNTIuMDI1LTg3LjE5NC0xNjcuNjE0LTg3LjE5NC0xNjcuNjE0bDYuMDg0LTEuMzdjMTMuNTI1LTEwLjEzNyw5LjQ3Mi0yMi45NzUsOS40NzItMjIuOTc1JiMxMDsmIzk7Yy0xNi4yMjYsMTYuODk3LTI3LjAzOSwwLjY4OS0yNy4wMzksMC42ODljLTQuMDYzLTUuNDIyLTEyLjE3My00MC41NTYtMTIuMTczLTQwLjU1NmwxNC43OS0xMC42ODUmIzEwOyYjOTtjLTAuODg4LDE4LjM1OCwxMC42NTgsMzEuODQ4LDEwLjY1OCwzMS44NDhjLTUuMzMyLTE1LjIyNy0zLjk4LTI4LjcxLTEuMTkzLTM4LjY4MWw4LjE0NC01Ljg5NCYjMTA7JiM5O2MzLjQ2LDI0LjQzNiwyMS42NTEsMzguMjYyLDIxLjY1MSwzOC4yNjJjLTEwLjMzOC0xNS4yMy0xNS4xMTYtMjkuODQ0LTE2Ljg4Ny00MS43MDdsNS45MjUtNC4yNzgmIzEwOyYjOTtjMS43MzcsMjQuOTksMTQuNjUyLDI5LjM4NiwxNC42NTIsMjkuMzg2Yy03Ljc4Ny0xMi43NzktMTEuMDYzLTIzLjA3My0xMS42OTEtMzEuNTIxbDU4LjczMS00Mi40NDkmIzEwOyYjOTtjMTAuMTI3LDIuNzA3LDI1LjY4My0wLjY5LDI1LjY4My0wLjY5YzE2Ljg4OC01LjM5NSwxNC44Ni0xNC44NjMsMTQuODYtMTQuODYzYzIuNzA4LTAuNjYyLDQuMDU2LTQuNzA4LDQuMDU2LTQuNzA4JiMxMDsmIzk7YzcuNDM3LTIuMDU1LDkuNDcyLTEyLjE5LDkuNDcyLTEyLjE5YzI5LjcyOS04LjA5OSwxMi44NDItMTUuNTI5LDEyLjg0Mi0xNS41MjlzNjUuNTY4LTQ3LjMzNSw3NC4zNDYtNTQuNzQ3JiMxMDsmIzk7YzguNzg5LTcuNDU4LDguMTE2LDAuNjQ4LDI3LjA0Mi00LjA2YzE4LjkzLTQuNzMyLDEyLjg1Mi01LjQyMiwyMi4zMTQtMTguMjU3YzkuNDU4LTEyLjg0MiwxNC4xOTQtMTguOTIyLDM2LjQ5My0yOS43MzMmIzEwOyYjOTtjMjIuMzE0LTEwLjg0NCwxNC4xOTctMTAuMTU1LDYuMDg4LTE0Ljg5NGMtOC4xMTYtNC43MTktNi4wODgtOC43NjUtMTMuNTIxLTI1Yy03LjQzMy0xNi4yMTItOS40NjUtMTMuNTMyLTIxLjYzMSwxLjM2NiYjMTA7JiM5O2MtMTIuMTY1LDE0Ljg3LTI0LjMyNywxOC45MTUtNDEuOTA4LDI2LjM0MmMtMTcuNTgxLDcuNDQ3LTE4LjI0NiwxLjM0Mi0xOS41OTksMTIuODM4Yy0xLjM1NSwxMS40OTctMTEuNSwyNy4wNTMtMTEuNSwyNy4wNTMmIzEwOyYjOTtzLTczLjY3Myw2MC4xNTgtOTEuOTI3LDYwLjgzNGMtMTguMjQ3LDAuNjYyLTE2LjIyMSw5LjQ3Mi0yNSwxMi44NDVjLTguNzk5LDMuMzkxLTEzLjUyMSw4Ljc4Mi0xMy41MjEsOC43ODJsLTE4LjkzNi0zLjM3JiMxMDsmIzk7YzAsMC0yLjAyMSw4LjEwNiwwLTQuMDdjMi4wNDgtMTIuMTU5LTUuNDAyLTMzLjc4Ni0wLjY3LTU1LjQyN2M0LjcyMi0yMS42MjMsMi43MTgtMy4zODMtNy40MzMtMzEuNzU0JiMxMDsmIzk7Yy0xMC4xNDQtMjguMzk0LDguNzkyLTIzLjY3NiwyMC45NDctNDQuNjI0YzEyLjE2OS0yMC45NTQtNi4wODQtMTkuNTk4LDQuNzMyLTU4LjgwNmMxMC44MjEtMzkuMjE1LDAtMjcuMDI5LTQuNzMyLTYwLjE1NiYjMTA7JiM5O2MtNC43MjktMzMuMTEsNC4wNjctMTUuNTUzLTEzLjUxNC01MC42OWMtMTcuNTc4LTM1LjE1Mi05LjQ2MS0wLjY3Ny0xNy41NzgtMjcuNzI5Yy04LjEwMi0yNy4wMjUtMjMuNjUxLTEyLjgzOC00Ny45OS0xOC4yMzcmIzEwOyYjOTtjLTI0LjMzMS01LjQyMy0xMC4xNDEsNS4zOTgtMzEuMDg1LDQuNzA4Yy0yMC45NzItMC42NTUtMTcuNTcxLTAuNjU1LTM5LjIwOCwxNC44OThjLTIxLjYyLDE1LjU1Myw3LjAyMS0yLjU2My0yNy4wMzUsMjQuMzE0JiMxMDsmIzk7Yy0yNy4wMTEsMjEuMzExLTMuMzgsMzEuMDk4LTE2LjkwOCw1Mi4wNDljLTEzLjUwOCwyMC45NjksNi43NzEsMTYuMjM2LTE1LjUzMiwxNi4yMzZjLTIyLjMxNywwLTIuNzEyLDIxLjYyNy0yNi4zNywxMC44MTMmIzEwOyYjOTtjLTIzLjY1NS0xMC44MTMtMzQuNDcyLDkuNDcyLTM0LjQ3Miw5LjQ3MmMtMjUuNjksMy4zNjYtMjUuNjksMTQuODYtNDMuMjcxLDU1LjQxNmMtMTcuNTYxLDQwLjU0OS0yMi4yOTksNzYuMzg4LTMwLjQwNSwxMDguMTQ4JiMxMDsmIzk7Yy04LjEyLDMxLjc4NS0yLjcwOCwzMi40NDQsOC4xMDYsNTIuNzI5YzcuMjYzLDEzLjU5NywyNS4zMDksMzcuNjM0LDM2LjUwNyw1Mi4xMDljLTAuODA4LDEuNTk1LTEuMzUzLDIuNjQ4LTEuMzUzLDIuNjQ4JiMxMDsmIzk7bC0xOS42MDksMzcuMTU5Yy0xNDkuMzg0LTQ1LjI5Mi0zMC40MTYsOTguMDE1LTQyLjU4NCwxMTkuNjQ5Yy0xMi4xNTksMjEuNjI3LTMxLjc1OCwxMTAuODU2LTMzLjExNywxMjEuNjczJiMxMDsmIzk7Yy0xLjM0OCwxMC44MjQtMi4wMzksNi43NjEtOC4xMTMsMTAuODI0Yy02LjA5NSw0LjA0My0xLjM0OCwxMC44MS0yLjAyOCwxOC4yNjRjLTAuNjcsNy40MDYtNC43MzYsNC43MDEtMTQuODgsOC43NTQmIzEwOyYjOTtjLTEwLjEzOCw0LjA3Ny04Ljc3NSwxNC44OC0zNS4xNDEsNTguODFjLTI2LjM2Niw0My45MzMtNDEuOTA2LDg1LjE5Ny00Ny4zMzIsMTAxLjQwNmMtNS4zOTgsMTYuMjA4LTE1LjUyOCwxNi4yMDgtMTkuNTkxLDMyLjQ0NCYjMTA7JiM5O2MtNC4wNjQsMTYuMjA4LDIuMDM1LDI2LjM2My0xLjM0NiwzNS44MTdjLTMuMzg3LDkuNDY4LTguNzg5LDIxLjY0MS03LjQzMywzNi40OTdjMS4zMzgsMTQuODgzLTYuMDkxLDIwLjk3NS02Ljc2NCwzNi41MjEmIzEwOyYjOTtDMjAzLjgwNSwxMDg4LjQ0NiwyMDYuNTIzLDExMDIuNjI2LDIxNy4zMjMsMTEwNy4zNTh6IE00NDEuNzM3LDM2Ny4xODFjNS40MTUtMTQuODYzLDEwLjgyLTQ4LjY2OSwxOS42MTYtNTYuNzgyJiMxMDsmIzk7YzguNzc4LTguMTA2LDAsMCwwLDkuNDgzYzAsOS40NjUsMS4zNDgsNDcuMyw4Ljc3OCw2MC44MjRjNy40NCwxMy41MjgsMi4wMjQsOC4xMTItMC42NjksMTcuNTgmIzEwOyYjOTtjLTAuNzIxLDIuNTIxLTMuMDA2LDcuNzgtNS45MzIsMTQuMDUyQzQ0Ny41MywzNzIuMTYyLDQ0MS43MzcsMzY3LjE4MSw0NDEuNzM3LDM2Ny4xODF6IiBmaWxsPSIjMjgyNzI3Ii8+JiN4YTs8L3N2Zz4=;" vertex="1" parent="1">
          <mxGeometry width="320" height="320" as="geometry" />
        </mxCell>
        <mxCell id="yTpIyO5GVoY9CFDIABng-4" value="" style="rounded=1;whiteSpace=wrap;html=1;fillColor=#f8cecc;strokeColor=#b85450;" vertex="1" parent="1">
          <mxGeometry x="400" y="40" width="120" height="270" as="geometry" />
        </mxCell>
        <mxCell id="yTpIyO5GVoY9CFDIABng-5" value="&lt;font style=&quot;font-size: 16px;&quot;&gt;Remote Server&lt;/font&gt;" style="text;html=1;align=center;verticalAlign=middle;whiteSpace=wrap;rounded=0;" vertex="1" parent="1">
          <mxGeometry x="430" y="80" width="60" height="30" as="geometry" />
        </mxCell>
        <mxCell id="yTpIyO5GVoY9CFDIABng-6" value="" style="shape=image;verticalLabelPosition=bottom;labelBackgroundColor=default;verticalAlign=top;aspect=fixed;imageAspect=0;image=data:image/png,iVBORw0KGgoAAAANSUhEUgAAAMgAAADICAYAAACtWK6eAAAABHNCSVQICAgIfAhkiAAAAAlwSFlzAAALEwAACxMBAJqcGAAAGCNJREFUeJztnXm0FNWZwH/9HvsiAqIoIhBQQREUNXMUY9wTI1HBJRk9Go2jJjNRs0xcyJgYnSTGLRpxT+I4cRy3qIkbOi5oYlwiEdxFyUM2BWRflOW9N398r86r+qq6urbu6uX7nXMPVPftW9+td2/d7VvAMAzDMAzDMAzDMAzDMAzDMAzDMAzDMAzDMAzDMAzDMAzDMAzDMAzDMAzDMAzDMAzDMAzDMAzDMAzDMAzDMAzDMBqLQt4CGBWnC7AHMAHYDRgJDAEGAL2BZmAzsAH4BFgA/AN4A5gJvAe0VVxqwygjA4F/Af4IrAHaU6RPgLuBk4GtKlkJw8iSAvAl4EFkREjTKYqlT4HfA/tVqE6GkZom4ERkShS3wW9EplZJOtRfkQ5p03ajapkIvEp4Q25D1hK/Bk4H9kfWIN1UWT2AocAByPTsBuC1EmW3A08jaxzDqBr6ArdQvNG2Ao8D30DWI2nYFvgm8CTS2YLutwX4OdA95b0MIzX7AnMJbqirgcuRkaAcDAeuAtYWuf8sYNcy3dswSnIGsm4IWkv8Etm6rQTbAFcDmwJkWQMcXSE5DAOQhfAvCH5rPwOMykmu0cCfA2RqA87NSSajwWgCbsLfCDcB3+v4Pk+agQuQdYiW8cc5ymU0AAXgevwN72Oq7yziQGAZflmn5imUUd9Mxd/g3gWG5SlUCCMJ3kA4LUeZjDrlWPwN7U1gUJ5CRWAHYA7+6WC1jXhGDTMC2bJ1N7K5wOA8hYrBUETp0S3/ItKfyZQdUwuIThMyZdgd2f/fAegP9EQ0ZDcD64ClwELkrfkGsCLlfZuB55ETb4dVwD913KNWGIeoo/R2ffYgcBzSYYwao4B0hguAJ/C/waOmucDtwNeBrRPIcV5AmV9NWKe8+Rr+upyQq0RGbAYDFwHvkKxDhKVNiMr5scioE0UWrZ4+LX0Vc+V3eOuzEO+oYlQpo4H/Ivg0uBzpQ+TwrGeITDer37RQ+41pa2AxNXI+YmsQ2B5RrDuV8EO2VmRNMQuZ+y9AjIfWdXzXFTEgGoysUXYD9gZ2KnH/xcDFSOd0W+qNAN5H1iAOxyIjUK1zMnCn63oN8sxW5iKNEUgzcA7FFe3agSWImveRQJ+E9xmKqIs/TPjo9DKykHWYpr5/jvp5oRXwq+VfmKtEhocdgWcp3lifQBTsoqwT4rAN8H3ExrvYGuUCZBqyXn13cMay5M0k/Nu+WT9vIwGHEKwC0Q48AuxVARm6IFO6eUXk0J//jfoZPRyagLfw1nNSrhIZnEGwEt1cxFy00vRAFqhBKuvudEYOslWCc/HW8658xWlsLiS48U0DeuUoF8h5y2yC5fsUsRisRwbhfWGtxW/6a1SAi/A3vHXA8XkKpegJ/Ba/nPWwaxXG09T3WqvqORN/o/uIyqw14lIA/h2vrCfnKlH50fW9JFdpGoxD8a85PgQ+l6dQETgacc52LvW3ONfsi38H0agAQ5GDPD1yVHvnaDS64j0f+jhfcRqDJmAG3s6xnuqcVhnwOt6/Vb98xal/zsG/7vh6rhIZYTyI9281Pl9x6pvt8WvA3pKrREYptFrN4fmK00neHjDKwWV4zw0+BH6QkyxGNLRRWRK7mbJQbx1kV8TfrJtzkDMPo3r5VF1XjcvSeusgF+Ct0zOIfpVR3eiAPFXTLqtGkAzYFv+h2n8gc1qjuumhrvWIkhv11EFOw6vH8zzwYj6iGDHRPoRX5yJFAPXUQU5R17Vuu91IDFHXS3ORosppRhT2+iCnq3EYjXebcAWmFVpL6MA8/fMVp5NKW3A1Ibba+yGHQaMRt5nb4Vfp3oCYvM5DIqu+DrzU8W+ryvsVdf0Qor5gVD9dgTHqs0+Qs6yPgfnI3/81xCzZ8TZTN/QAJiNG+lo3KklaCdyD+Fhy7DgeUXmmlL9aRkaMI97ffwni4OJoanyWMAq4FpnupO0UxdIaxDXOctdnbVTREG2UZATJ//7LkQhXNaWAOgZ5wxeLX1esobcgw+dbiAls0o71bvmraGTMmYgj7reQNjCPePHcW4H/AXausNyxGIAEdmklvDKzkQirpyDrkDBz0p7ImuVE4ErEVUypjndvttUycqQvsCfSVq6ndGjrLcB1VJGqisMUZG5YTPCZiI/ZHTO41yDgLIJDfbUD/5nBPYzqZSgSSWsWxdvbYqokLmJP4DcEC9kG3Id4IS8XYxFfr07g+02YzUejUEB2Qx+geEe5Gf8pfcXYEfh7EcGmU9lg8p8DzkY6jNF47Inf+YOTXkFCVVSUsYgnPC3MEsRTSL3bURvVRwExigtyCjgfWctWhAl4t1Wd9AjVHw7MqH8GA0/ib5/LqICl4liCO8cl1Jdel1HbNAOX42+nSxHtjbKwA/44c61YxFKjejkb/7FAC6LalCndET0o3Tm+lvWNDCNjTsU/kjxPfIXYUK4LuEm9OlQ26o/v4G+/V2RV+OEBhV+eVeGGUSGCXvIHpS20N/5YFU/jDQtmGLVAV+AveNvy+4THiCzJZarAlfitvwyjVhiGXwnyR0kLG4IYz7sL+2Z6GQ0jV76Nt02vQxx+xOZ6VdBL2FmHUfs041eRuipuIQMRk1d3IQdmJ6Nh5MpheNv2WmKqyJ+vCpiRrXyGkSsF4AW8bfy7cX48R/24KnTr65QuyIg9DDFTHgXs1PGZ7RaWj8l42/ibBCjZBmnd7oOEHXZYCAzH70nEiMc2iG3MBESz1OkIgyiu/ezoD81HtiTfQubPLyM7ikZyuiDPdXvXZ+MQq8VQfoa3Z/2yHNI1AF2QEHDXIG+nYkY9SdNsZHF5EJV331QvXIP3mf44yo9mqh+V0yKwHtkbuIFsXBxFTUuRXcc9K1C/emIi3uf4QqkfbIXX6cJybB4chS7APyPWa5XqFMXSX4ETsL9bFLoAq+h8dpvo9LUWyMF4H3a9x+hOSzPiceMDkjXmj4AfIvPgda7PP0FMmqcSbCEXJb2LWNjZ2VU4j+J9bhPDMp+nMl9cbulqmIPw+5TV6e/A/UW+m4bX5ZHuIA79KO4Y474IMvwNcW5gBHMJ3uf17bDMN6jMk8ssXC3SH3F9WaxBrgZ+BeyOGJl9pL7fSHBA0WIdxOE0Or23OGkRYmI6FvE1FuZs7VYsemwQx+N9Tr8Ky6x93Fq0US9HINveQQ3wY+D7dI4KXfD77toIfLlI2aU6CMAxiHM0d5nP0rne2Ao55F1aRMYFZKDiXWdMwPuMHgjL/LLKnEiJqw5pRhzSBTW6tchaQS/ufhSQN8wCM0oHARlJdLkXqDx9kC3L9QF52zq+s7WJMBjv8/lzWOZ3Veaa9p6dEVsT7CXDWQMEqf/vhuyIuPP+osR9onYQkOmUu+zPgF0C8g1FNlqCZH8I6UiNTne8z+X1sMz/UJkb3b/VTgQf8q1A/AUHUUCCh+qFcikb6DgdpDvyh3Tf4wmC/14FJHbjKvz1mEkZHBjUGAW8z+S9sMxzsQ7iMAq/F5d25JxhaMjvjlb5NxPN42OcDgKiEqQ9dhwZkn84wec07yMvgkalCe/zCI0O8LbKnMocsYbZmWDPkb8hfNrZhN8DeVRbg7gdBMSbvh4Rwl5q3YHb8derhcbtJL3wPotZYZm1zW4W3thrjSHAh/gb0UWUHlG1hugKotsZJOkg2yKbBO576nB0mgJyvhU0kgyOeN96Yije5/BMWOY/qMyNpofVj+AYFGdH/L22MYhj75ykg4Dfb8CMiL/7N/z1nIVsFTcS++F9Bne7v9RbffPU9aiyiVV9NCFxFPV6YT0SHKhUWLcJwP6u6zVUJhT1tYj1p8MXKX1+1R85r1mvPh+PPING2gLWbbwlLPOZeHtTI6m6/4Tg7VAnrQduQ0bVoKnWrSp/6IlsAElHEIAb1b1vDMhTAD6P1CHofCTpyFfrXIG37qeGZd5XZZ5RZuGqhQMoHTrOneYAlyLq5QVkoafVPOLGy0vTQXZX916FBI4pIEZAP8V/xhWWWpFn0gg8j7fuoaNvN7yufj6l/ney+uJ3jjcTObF+j9KNaT5yBuH+7LkEcqTpIAAvKhmmE7zZoNPbiEayDmnWQv0fJPZCDlmdOq8hgvHZU3gfVKldkVrnWrz1XUNnWOFmJP7ic5RuaHqxOxU5ExlFNIu/uB2kKzJKHYNMifTBYan0dId8znpjZyVDe8ezqWcm4a3vozpD0B/uMcRU1OH4js/qkb2Ac9Rn5yAaBSBTjQc60hjgdOAkSnuXHI93qN6CHDp+iJyvLEE6wSpkm3Y93r9FN6Rj9kJGuK0R2/XtEA3hYci5RVyjqPnAXchZyBz13fuIsuUtrs/ORTSXQ88GapgT1PXjUX40HG+vWkt9DrUFZI3lruvjlD7raELm51fj9/5SjekdZCG6H6V3p4LUZGZEeCa1SF+8I2YbMWIZ6gPDb5VBwLw5Cm8dNwIjE5RzG+Vp2FmkXyeoz2j8ipZhKiy1yrfwTzkjo4OOzKG+PGcUEAVCdx2TbmlrZcaJSMiIHyBTmRcIjyGfNH2EqGb/FokbfihwiMrjdt8UB70ue4X6GkW6IFNKdx2DjNiKVro7srPjVj04DbgjKwlz5jDg/1zXq4ERxPc1tQ1iM+6wGFHPaQ/I26vju+2R9cRA5OS+L7JTeB6dL6GNyCHjBmQasApxoLEM6RgLkR1GTVNHngEd120d91gXs16DkF2s3q7PDkc2cOqB04Hfua4XILOHzXEK+SHeHrYQ7wOrZR7DW7dLE5bzVVXO/6aQKe02r8OflEyHJCxHH6A9nEKmaqIPfkVUvVETiV7IG9Fd0JXZyJgrw/CqiX9GcsvJS/E+n/NSyJVVB5mqZLowYTlD8NrAtyHPrta5Gu/zmY8cqibiNFVYK159o1rkp3jrlGbaqG340zybrDqIDpl3b4qy7lFlRfI8WMVMxK8xEbj2iEoT/qP4FjrnuLVGAb/KxRdSlOc+qW4j3XZ4Vh1kEN76hRoAlUB3trep3cX6QPwaE0+RQX12wa/c9iQZh9GtEFpnqYXkD6iPKuuDlLJl1UFAPKw4ZW1BNl2S0IzfbdFuKWXLg67Ipoy7Hmvp1JgoShS15jn459aHAzdTe2+To9S1Y/+SBK2MGGrLXGHecf2/mWTnOyDTkYfUZ7WmetSEaFofpj7/Vzo1JlJTQLbF9F789dRWJ9HeSQ5KUdYJqqzrUsqW5QiiVe8npShLH6g+mVK2StKEbJfrdntTOW7WHf96pB05DKuF6VZXvGHlNpDOrZHeBk+zgwXZdpCL8Mr2nRRl9ca7m7WO2jg07kqwB8ynKGN77Y9fLbodOaYfVK6bZsR4vDLPSFmeDkw/JWV5WXaQk/HKVsonVym0Q8FxKcsrN4Pw65S1A68S0/1qXNPKlcj6Q2t3HoI4aj4oZnmVZG91/UrK8rZX14tTlpclWpbISnhF0CorE1KWV06+iLTFg9XnM4EvIVoTkUlie7ys4+Yz1Oc7Ir12GtXpJHmMup6dsjw9Yi5NWV6WaFnSupDVz2p0yvLKQT9EOfNZ/N54nkJ01ZZXUqBu+BeDTlqK7BIk3V4sBw/glXGflOVpA6W0L4Usp1ja3+xLKcs7UJX3h5TlZUk3RDO3mELoNHJeI38DvyWakxYii9ltcpOuEx08Pq1M+pAwrSeQLDuI9jf7Tnj2kuykyns5ZXlZMADRYi5mVrwGMW6rCkbiN9V1p43IG/wk5EQzD+a75NlE+u3p5a7y4mrLBpFlBwGvTceClGV1xfv3TFteUvojHvLvw2tLrtN0xPAvNVmeYRQQh85XEO7Gsh1xzvZyx79zEe3KFYgKt6MrkzWL6AxRsIxgb+hxWEynQ4sVJD+Mc3DLt5IIp7wlmE9nrJKsy9tAeZxeF5At5B7ICLEj8lz3QNwtjSd8pG5BZizOdLoq6Y547ZtH8R5uyVKWaS7i/bKmwnV0AY5Dhrs4PqcsWYqStiBeSCZTxoi+lVIT2RZxT3Mksk9dq9rARr4sR44XHkcMw5aF5s6APPSomhBFv3HI2cRwpAP1R6Zn5VJj0G543sqwvFbENj0N4+j8e7Qh67M07EHnfD2L8sbifVOnPUcqxhZkAb4SOS6Yh+zCvU6nHblRBlbTOTxnsUvk3nXK4gAq610sd1iELA4x3XpsZX9zVwuN5MV7hev//Uk/b3V7VNcBPPPG8RfssKFYxoj0xuuCdkWxjPVGI3UQt35SE+mDxbjPPnpQXRrNPfH+bdemLE97klyUsryaoZE6yHx1nfZcYJW6rib9Mx3LRMsaF/2s8joorDiN1EG0xV9a01G9TqgGdRoHLUvaNZJW9Kwm68my0kgd5G11vVfK8vTCt5ri+2lZlqQsTz+rtDuANUMjdZBX1XXa+Iva5qKUx/dKkvWaQT8r/SzrlkbqIC143/rjiR6BNgg9D6+mMMrD1PXCFGUNxqu3tghbpNcl7YgxjUMBv6eLOLSo6xEpysoavaiel6KsI9R1aJjkeqOROgh4HVaDRFhKivaDlVY7OEu0LHNTlKWfkX6GRh2xHV6/vE6wyyR0Q9QinLLSLoSzOkkv4A0oup7kL8I+eJ0GbiE/ex6jQmjXRSemKOttVVYa2++sOsgIJVPSGCHgjxNTL+EPItNoUyyA36vrs1KUpRX20m4dZ4GWIY1S4dnqWj+7uqcRO8i9yLTB4VDEZ28SZqrrzycsJ0u0DFrGqOyD11v9WsRSr6FoxA6yGv+b8PyEZWnnBdUQGmKiuk7q/0vHFbmD9DpdRo2wK97FeivJdqF64nWOECkQfRGyWIP0xOvMIKmbUO2FshWJ995w1IKP1XLwHnA/nXGymxD3nMfFLOdTZBQ5oOO6LzI1ecl1vQvieGA44oRgB2QxPxA5qOyDNGy3NvBAxBPMZ0gjX43oUy1FTvAXImcbHyDe9503+/54fZG9gOw8xUUHNL2H9OEdjBpjDH5b+STx/H6iyngGiec3X31ezjQP+CPwnPo8ydRxkipjC9V1xmNUEB3j/D2in4v0RGzs76W8jT9Nugs5CY9apz74vdHcGPG3Rh0yCLF9djeIq0Ly90SmZffjj7qVJG1GrPMWqs/bOj5bgTf0QNK0FpkmTSHcHexN6nfLsYPBhucs/A1K6x/tiUTUWhWQNyzNRQJ9XoOEGj4G2BdRbOyN12lGsUV6AXmzD0O2cCcD5wLXIm5vWmLKtALxVztW1fGYgLynhz45oyEo4I9ftxRpxEfhn9dHSR/R6YUwKml2sfohjhTiyvk08jIYiX8knU5tRQ8zysgQvL522/F68QhKW5AF+XeRg8YF6vsDY8qQpoMcoe7dgox65yOqNaUc9+m6LsMf/8RocI7CezZSLP0FUcHQc/NLVb77Yt4/TQd5WN1bxzPfFgnDpiNFBaU24Msx7280CBdT/A17A+F27EPxave2Es8xRNIOMkbJupnwiFLjgFuQM5yguk6NcW+jwSgA/42/0TxANLc+d6vf3Rbj3kk7yJ3qnndG+E03JLyzruft2LrDKEE34DH8jWc6pRfeE9Rv4hyyJekg4/BPC0sF2NwKeAJ//R6lunx7GVVMT4J3r96g9LTpT+o3D0e8Z9wOUkB2odz3erDEb0YiddD1ehav50TDKEkfgqNmrQSODfld0Fs9LL9D3A6iQz1vIXyNNBn/Vq4zMlab61SjRuiOqGsELWZvQ6YrQdys8n5M6TjycTpI0Lb09UXy9sOvUuOkO6ixoDNG9VFAtk2DtoAXIqonemE7ADls1G/qMIfZUTtIV/zTv8X4XRgVOmRbFCB3G3BRgNyGkZgjKX5a/Tx+52pTAvJdS/FGGaWDFAgOvT1J5dsfv+29k5biV6UxjEzYgeAdLvcoMYXOaUtQY76M4E5SqoMUEEVKXd51ru8P7ZChmHwPU10uUo06pIDEhg/TfVoCXIlY5r0Y8P2t+LVqwzpIL8RMWJczAzHC+h7iL7eYPEuRRb1NqYyK0R+ZMrlNboPSu0U+n413Wlasg3wBv3shJ71GuJ7VRkSTOI2LVcNIxQhklyip3cZ04CS8qh+rgFPwn3NETZsQdZJhZay3YcRiCPBz/LtXlUxLgJ8RrotlGLnSDTmUu5/SKvNZpPWI5vCx2JmGUWP0Ar6C7DTNJpo6fanUCsxC1j9HYioiZcV2NSpLXyR++W5IrPjhyLbrgI7vnBFgE7JoX45Mm+Yj7n3eROKFuwOIGoZhGIZhGIZhGIZhGIZhGIZhGIZhGIZhGIZhGIZhGIZhGIZhGIZhGIZhGIZhGIZhGIZhGIZhGIZhGIZhGIZhGIZhZMb/AwkmjP/F7AXAAAAAAElFTkSuQmCC;" vertex="1" parent="1">
          <mxGeometry x="422.5" y="200" width="75" height="75" as="geometry" />
        </mxCell>
        <mxCell id="yTpIyO5GVoY9CFDIABng-7" value="" style="endArrow=classic;html=1;rounded=0;strokeWidth=2;" edge="1" parent="1">
          <mxGeometry width="50" height="50" relative="1" as="geometry">
            <mxPoint x="230" y="140" as="sourcePoint" />
            <mxPoint x="390" y="100" as="targetPoint" />
          </mxGeometry>
        </mxCell>
        <mxCell id="yTpIyO5GVoY9CFDIABng-11" value="&lt;font style=&quot;font-size: 16px;&quot;&gt;Recorded patterns&lt;/font&gt;" style="edgeLabel;html=1;align=center;verticalAlign=middle;resizable=0;points=[];rotation=-15;" vertex="1" connectable="0" parent="yTpIyO5GVoY9CFDIABng-7">
          <mxGeometry x="0.131" y="1" relative="1" as="geometry">
            <mxPoint x="-20" y="-8" as="offset" />
          </mxGeometry>
        </mxCell>
        <mxCell id="yTpIyO5GVoY9CFDIABng-9" value="" style="endArrow=classic;html=1;rounded=0;strokeWidth=2;" edge="1" parent="1">
          <mxGeometry width="50" height="50" relative="1" as="geometry">
            <mxPoint x="390" y="230" as="sourcePoint" />
            <mxPoint x="230" y="159.66" as="targetPoint" />
          </mxGeometry>
        </mxCell>
        <mxCell id="yTpIyO5GVoY9CFDIABng-12" value="&lt;font style=&quot;font-size: 16px;&quot;&gt;Trained model&lt;/font&gt;" style="edgeLabel;html=1;align=center;verticalAlign=middle;resizable=0;points=[];rotation=25;" vertex="1" connectable="0" parent="yTpIyO5GVoY9CFDIABng-9">
          <mxGeometry x="0.2403" relative="1" as="geometry">
            <mxPoint x="19" y="24" as="offset" />
          </mxGeometry>
        </mxCell>
        <mxCell id="yTpIyO5GVoY9CFDIABng-13" value="" style="sketch=0;pointerEvents=1;shadow=0;dashed=0;html=1;strokeColor=none;fillColor=#434445;aspect=fixed;labelPosition=center;verticalLabelPosition=bottom;verticalAlign=top;align=center;outlineConnect=0;shape=mxgraph.vvd.wi_fi;rotation=45;" vertex="1" parent="1">
          <mxGeometry x="200" y="140" width="22.5" height="22.5" as="geometry" />
        </mxCell>
      </root>
    </mxGraphModel>
  </diagram>
</mxfile>
